<?xml version="1.0" encoding="UTF-8"?>
<svg id="Layer_1" data-name="Layer 1" xmlns="http://www.w3.org/2000/svg" viewBox="0 0 512 512">
  <defs>
    <style>
      .cls-1 {
        fill: #8162aa;
      }

      .cls-2 {
        fill: #f37264;
      }

      .cls-3 {
        fill: #f05023;
      }

      .cls-4 {
        fill: #48ba7f;
      }

      .cls-5 {
        fill: #1f2228;
      }

      .cls-6 {
        fill: #47b8e9;
      }
    </style>
  </defs>
  <path class="cls-5" d="M420.05,512H91.95c-50.78,0-91.95-42.14-91.95-94.13V94.13C0,42.14,41.17,0,91.95,0h328.1C470.83,0,512,42.14,512,94.13v323.74c0,51.99-41.17,94.13-91.95,94.13Z"/>
  <g>
    <path id="path0_fill" data-name="path0 fill" class="cls-4" d="M209.68,394.96c25.57,0,46.32-20.75,46.32-46.32v-46.32h-46.32c-25.57,0-46.32,20.75-46.32,46.32s20.75,46.32,46.32,46.32Z"/>
    <path id="path1_fill" data-name="path1 fill" class="cls-1" d="M163.36,256c0-25.57,20.75-46.32,46.32-46.32h46.32v92.64h-46.32c-25.57,0-46.32-20.75-46.32-46.32Z"/>
    <path id="path1_fill-2" data-name="path1 fill" class="cls-3" d="M163.36,163.36c0-25.57,20.75-46.32,46.32-46.32h46.32v92.64h-46.32c-25.57,0-46.32-20.75-46.32-46.32Z"/>
    <path id="path2_fill" data-name="path2 fill" class="cls-2" d="M256,117.04h46.32c25.57,0,46.32,20.75,46.32,46.32s-20.75,46.32-46.32,46.32h-46.32v-92.64Z"/>
    <path id="path3_fill" data-name="path3 fill" class="cls-6" d="M348.64,256c0,25.57-20.75,46.32-46.32,46.32s-46.32-20.75-46.32-46.32,20.75-46.32,46.32-46.32,46.32,20.75,46.32,46.32Z"/>
  </g>
</svg>