<?xml version="1.0" encoding="UTF-8"?>
<svg id="Layer_1" data-name="Layer 1" xmlns="http://www.w3.org/2000/svg" viewBox="0 0 512 512">
  <defs>
    <style>
      .cls-1 {
        fill: #9696ca;
      }

      .cls-2 {
        fill: #1e1d58;
      }
    </style>
  </defs>
  <path class="cls-2" d="M420.05,512H91.95c-50.78,0-91.95-42.14-91.95-94.13V94.13C0,42.14,41.17,0,91.95,0h328.1C470.83,0,512,42.14,512,94.13v323.74c0,51.99-41.17,94.13-91.95,94.13Z"/>
  <g>
    <path class="cls-1" d="M192.34,144.82h-83.45v222.35h46.84v-69.45h36.61c21.11,0,40.22-8.56,54.06-22.39,13.83-13.84,22.39-32.95,22.39-54.06,0-42.22-34.23-76.45-76.45-76.45ZM211.92,246.78c-6.53,6.53-15.55,10.56-25.51,10.56h-30.69v-72.14h30.69c19.92,0,36.07,16.15,36.07,36.07,0,9.96-4.04,18.98-10.56,25.51Z"/>
    <path class="cls-1" d="M343.62,218.65v-21.6h-44.69v170.13h44.69v-96.8c0-8.1,3.9-15.75,10.57-20.36,17.97-12.41,48.92-10.71,48.92-10.71v-46.84c-38.76,0-59.49,26.17-59.49,26.17Z"/>
  </g>
</svg>