<?xml version="1.0" encoding="UTF-8"?>
<svg id="Layer_1" data-name="Layer 1" xmlns="http://www.w3.org/2000/svg" viewBox="0 0 512 512">
  <defs>
    <style>
      .cls-1 {
        fill: #9696ca;
      }

      .cls-2 {
        fill: #1d1c57;
      }
    </style>
  </defs>
  <path class="cls-2" d="M420.2,511.17H91.8c-50.7,0-91.8-42.08-91.8-93.98V94.8C0,42.9,41.1.83,91.8.83h328.39c50.7,0,91.8,42.08,91.8,93.98v322.39c0,51.9-41.1,93.98-91.8,93.98Z"/>
  <g>
    <path class="cls-1" d="M172.3,146.06c8.33,0,16.66,0,24.99,0,3.88,0,3.9,0,5.16,3.54,25.22,70.58,50.43,141.16,75.65,211.74.19.52.39,1.05.5,1.6.44,2.19-.16,2.97-2.43,2.99-5.05.04-10.09.02-15.14.02-8.97,0-17.94,0-26.91,0-3.83,0-4.15-.23-5.36-3.75-5.3-15.46-10.63-30.91-15.85-46.4-.63-1.88-1.45-2.58-3.52-2.58-24.43.08-48.86.08-73.28,0-1.97,0-2.75.61-3.33,2.44-4.85,15.27-9.81,30.51-14.74,45.76-1.27,3.94-1.85,4.37-5.97,4.37-11.93,0-23.87,0-35.8,0-4.94,0-5.45-.7-3.85-5.29,15.82-45.23,31.66-90.46,47.47-135.7,7.05-20.17,14.2-40.31,20.93-60.59,1.53-4.6,1.61-9.7,2.13-14.6.36-3.38.31-3.54,3.64-3.54,8.57,0,17.14,0,25.71,0ZM146.27,271.53h52.94c-9.06-29.15-18.08-58.17-26.86-86.39-8.54,28.29-17.3,57.29-26.08,86.39Z"/>
    <path class="cls-1" d="M431.26,288.19c2.01,0,9.13.03,9.13.03,0,0-.05-17.52-.33-23.3-.49-9.81-2.02-19.57-5.22-28.73-4.97-14.27-14.32-26.53-27.51-34.18-7.07-4.1-14.9-6.82-22.95-8.26-28.63-5.14-60.14,1.71-78.14,25.87-14.39,19.32-18.59,44.72-18.54,68.26,0,0,.17,72.15,76.78,77.85,0,0,33.57,2.52,61-9.41v-36.46s-85.26,25.92-90.82-31.98c13.09.04,26.18.09,39.28.13,19.11.06,38.22.12,57.33.19ZM365.96,225.81c17.29,0,31.3,13.97,31.3,31.2h-62.61c0-17.23,14.02-31.2,31.3-31.2Z"/>
  </g>
</svg>