<?xml version="1.0" encoding="UTF-8"?>
<svg id="Layer_1" data-name="Layer 1" xmlns="http://www.w3.org/2000/svg" viewBox="0 0 512 512">
  <defs>
    <style>
      .cls-1 {
        fill: #56a1d8;
      }

      .cls-2 {
        fill: #071f35;
      }
    </style>
  </defs>
  <path class="cls-2" d="M420.05,512H91.95c-50.78,0-91.95-42.14-91.95-94.13V94.13C0,42.14,41.17,0,91.95,0h328.1C470.83,0,512,42.14,512,94.13v323.74c0,51.99-41.17,94.13-91.95,94.13Z"/>
  <g>
    <path class="cls-1" d="M186.41,141.73h-83.45v222.35h46.84v-69.45h36.61c21.11,0,40.22-8.56,54.06-22.39,13.83-13.84,22.39-32.95,22.39-54.06,0-42.22-34.23-76.45-76.45-76.45ZM206,243.69c-6.53,6.53-15.55,10.56-25.51,10.56h-30.69v-72.14h30.69c19.92,0,36.07,16.15,36.07,36.07,0,9.96-4.04,18.98-10.56,25.51Z"/>
    <path class="cls-1" d="M409.03,314.23c0,14.76-6.88,28.84-17.74,38.68-12.24,11.09-29.24,15.82-45.4,17.06-1.94.15-3.88.24-5.82.28-17.96.37-36.84-3.45-53.16-10.99-.17-.08-.35-.16-.52-.24.03-13.09.05-26.18.08-39.27,0,.72,12.98,3.86,14.59,4.38,14.81,4.86,32.5,8.5,48.11,6.5,3.3-.42,6.68-1.24,9.24-3.37,9.63-8-.13-17.94-7.98-21.76-8.51-4.14-17.67-6.75-26.36-10.49-8.24-3.54-16.1-8.14-22.66-14.25-21.71-20.23-20.86-54.19,1.26-73.84,12.53-11.12,29.44-14.65,45.77-15.37,16.9-.74,33.96,2.27,49.61,8.7.6.25,1.24.53,1.57,1.09.28.47.29,1.06.29,1.61.02,13.37.03,26.73.05,40.1-2.55-2.18-6.03-3.08-9.05-4.4-3.27-1.43-6.62-2.7-10.03-3.79-12.05-3.86-27.71-7.43-40.08-3.19-4.55,1.56-7.94,4.8-7.94,9.83,0,7.79,7.63,11.54,13.88,14.38,7.73,3.52,15.97,5.67,23.68,9.24,20.01,9.28,38.62,25.21,38.62,49.09Z"/>
  </g>
</svg>