<?xml version="1.0" encoding="UTF-8"?>
<svg id="Layer_1" data-name="Layer 1" xmlns="http://www.w3.org/2000/svg" viewBox="0 0 512 512">
  <defs>
    <style>
      .cls-1 {
        fill: #f89a1c;
      }

      .cls-2 {
        fill: #2d110f;
      }
    </style>
  </defs>
  <path class="cls-2" d="M420.05,512H91.95c-50.78,0-91.95-42.14-91.95-94.13V94.13C0,42.14,41.17,0,91.95,0h328.1C470.83,0,512,42.14,512,94.13v323.74c0,51.99-41.17,94.13-91.95,94.13Z"/>
  <g>
    <rect class="cls-1" x="349.62" y="206.2" width="46.84" height="171.21"/>
    <circle class="cls-1" cx="373.04" cy="161.51" r="26.92"/>
    <path class="cls-1" d="M248.18,151.82h-60.34c0,10.14-1.76,20.21-5.2,29.75l-70.6,195.83h49.43l17.76-53.96,79.21-.57,18.1,54.53h52.27l-80.63-225.58ZM192.22,279.29l25.76-87.58,27.02,87.58h-52.77Z"/>
  </g>
</svg>