<?xml version="1.0" encoding="UTF-8"?>
<svg id="Layer_1" data-name="Layer 1" xmlns="http://www.w3.org/2000/svg" viewBox="0 0 512 512">
  <defs>
    <style>
      .cls-1 {
        fill: #401121;
      }

      .cls-2 {
        fill: #e94a6a;
      }
    </style>
  </defs>
  <path class="cls-1" d="M420.05,512H91.95C41.17,512,0,469.86,0,417.87V94.13C0,42.14,41.17,0,91.95,0h328.1C470.83,0,512,42.14,512,94.13v323.74c0,51.99-41.17,94.13-91.95,94.13Z"/>
  <g>
    <rect class="cls-2" x="135.4" y="152.9" width="48.99" height="226.66"/>
    <path class="cls-2" d="M327.6,132.44v69.45h-29.91c-42,0-76.06,34.05-76.06,76.06v25.55c0,42,34.05,76.06,76.06,76.06h29.91s48.45-3.74,48.99-18.3v-228.81h-48.99ZM327.6,339.18h-18.27c-22.91,0-41.49-18.57-41.49-41.49v-13.93c0-22.91,18.57-41.49,41.49-41.49h18.27v96.91Z"/>
  </g>
</svg>