<?xml version="1.0" encoding="UTF-8"?>
<svg id="Layer_1" data-name="Layer 1" xmlns="http://www.w3.org/2000/svg" xmlns:xlink="http://www.w3.org/1999/xlink" viewBox="0 0 512 512">
  <defs>
    <style>
      .cls-1 {
        fill: #fff;
      }

      .cls-1, .cls-2, .cls-3 {
        fill-rule: evenodd;
      }

      .cls-4 {
        fill: url(#GradientFill_1);
      }

      .cls-5 {
        filter: url(#drop-shadow-1);
      }

      .cls-2 {
        fill: url(#GradientFill_3);
      }

      .cls-3 {
        fill: url(#GradientFill_2);
      }
    </style>
    <linearGradient id="GradientFill_1" data-name="GradientFill 1" x1="0" y1="256" x2="512" y2="256" gradientUnits="userSpaceOnUse">
      <stop offset="0" stop-color="#8ac640"/>
      <stop offset=".37" stop-color="#2cb34a"/>
      <stop offset="1" stop-color="#098542"/>
    </linearGradient>
    <filter id="drop-shadow-1" x="123.59" y="113.27" width="268.03" height="283.35" filterUnits="userSpaceOnUse">
      <feOffset dx="-8" dy="20"/>
      <feGaussianBlur result="blur" stdDeviation="0"/>
      <feFlood flood-color="#231f20" flood-opacity=".5"/>
      <feComposite in2="blur" operator="in"/>
      <feComposite in="SourceGraphic"/>
    </filter>
    <linearGradient id="GradientFill_2" data-name="GradientFill 2" x1="179.58" y1="133.01" x2="215.27" y2="168.43" gradientUnits="userSpaceOnUse">
      <stop offset="0" stop-color="#c4c4c4"/>
      <stop offset=".24" stop-color="#ccc"/>
      <stop offset=".62" stop-color="#e2e2e2"/>
      <stop offset="1" stop-color="#fff"/>
    </linearGradient>
    <linearGradient id="GradientFill_3" data-name="GradientFill 3" x1="248.65" y1="227.7" x2="358.49" y2="345.6" gradientUnits="userSpaceOnUse">
      <stop offset="0" stop-color="#c4c4c4"/>
      <stop offset=".24" stop-color="#c9c9c9"/>
      <stop offset=".53" stop-color="#d7d7d7"/>
      <stop offset=".84" stop-color="#efefef"/>
      <stop offset="1" stop-color="#fff"/>
    </linearGradient>
  </defs>
  <path class="cls-4" d="M420.05,512H91.95c-50.78,0-91.95-42.14-91.95-94.13V94.13C0,42.14,41.17,0,91.95,0h328.1C470.83,0,512,42.14,512,94.13v323.74c0,51.99-41.17,94.13-91.95,94.13Z"/>
  <g class="cls-5">
    <path class="cls-1" d="M370,365.44c2.41-2.47,6.89-6.96,9.69-9.63,2.8-2.67,3.91-3.54,4.93-4.04,1.02-.51,1.94-.66,2.66-.53.71.12,1.21.53,1.56,1,.35.48.55,1.03.74,1.99.19.96.36,2.34.64,4.29.27,1.95.65,4.48.94,6.69.29,2.21.49,4.11.46,5.4-.02,1.29-.27,1.96-.8,2.7-.52.74-1.33,1.54-2.06,2.11-.74.58-1.41.92-2.21,1.09-.8.16-1.73.14-2.83.05-1.1-.09-2.37-.24-3.58-.41-1.2-.17-2.32-.37-3.46-.56-1.14-.19-2.29-.36-3.6-.56-1.31-.2-2.79-.42-3.82-.64-1.04-.21-1.64-.41-2.05-.75-.41-.34-.64-.81-.79-1.31-.15-.5-.22-1.02-.12-1.61.1-.59.38-1.24.68-1.79s.62-1,3.03-3.47Z"/>
    <path class="cls-1" d="M170.36,120.36c8.91-8.18,16.69-9.18,24.08-3.51,116.8,116.8,175.58,174.94,175.58,174.94,7.43,6.86,11.86,14.03,13.27,21.53,1.01,6.85,1.9,13.55,2.68,20.1.15,1.31-.26,2.12-.81,3.31-1.74,3.82-5.14,7.77-10.2,11.84-11.55,11.25-17.33,16.87-17.33,16.87-3.41,3.84-11.59,1.96-17.47.77-13.3-2.68-14.51-.53-25.43-10.82-116.6-116.6-174.9-174.9-174.9-174.9-5.59-5.02-8.32-8.87-8.18-11.55-.11-1.36-.09-2.64.03-3.83.45-4.17,3.51-8.64,6.04-11.97,1.87-2.46,4.2-5.01,6.97-7.66,7-7.25,15.55-15.62,25.65-25.12Z"/>
    <path class="cls-3" d="M156.36,134.19c-.46.86-.47,1.71-.36,2.53.11.82.33,1.62.67,2.42.34.8.79,1.6,1.41,2.46.63.86,1.43,1.79,4.39,4.82,2.96,3.04,8.09,8.19,12.5,12.65,4.41,4.46,8.11,8.24,12.35,12.49,4.24,4.25,9.01,8.97,11.7,11.6,2.69,2.62,3.29,3.15,3.57,3.4.29.25.26.22,5.36-4.93,5.1-5.16,15.32-15.45,20.43-20.59q5.12-5.14,5.11-5.15s-.07-.07-6.5-6.49c-6.43-6.42-19.23-19.22-25.63-25.61q-6.4-6.39-6.73-6.65c-.35-.27-1.05-.82-1.87-1.34-.82-.52-1.76-1.01-2.74-1.39-.98-.39-2-.68-3.1-.84-1.1-.16-2.27-.19-3.38-.1-1.11.09-2.14.32-3.07.59-.93.27-1.74.6-2.81,1.17-1.07.56-2.38,1.36-3.58,2.19-1.2.84-2.29,1.72-3.28,2.58-.99.86-1.89,1.71-3.05,2.8-1.16,1.09-2.56,2.43-4.13,3.93s-3.28,3.15-4.6,4.43c-1.31,1.27-2.22,2.16-2.68,3.03Z"/>
    <path class="cls-2" d="M385.16,336.72c-.95,1.94-1.99,3.6-3.14,4.97-6.37-.4-11.53-.86-15.47-1.41-7.38-.34-15.98-5.29-25.8-14.85l-123.52-123.9-28.02,28.32-6.34-6.34,59.09-59.19,131.93,131.36c4.76,5.01,7.89,10.88,9.4,17.62,1.7,12.65,2.54,18.97,2.54,18.97.38,1.58.15,3.06-.67,4.44Z"/>
  </g>
</svg>